<?xml version="1.0" standalone="no"?>
<!DOCTYPE svg PUBLIC "-//W3C//DTD SVG 20010904//EN"
 "http://www.w3.org/TR/2001/REC-SVG-20010904/DTD/svg10.dtd">
<svg version="1.0" xmlns="http://www.w3.org/2000/svg"
 width="1024.000000pt" height="1024.000000pt" viewBox="0 0 1024.000000 1024.000000"
 preserveAspectRatio="xMidYMid meet">
<metadata>
Created by potrace 1.11, written by Peter Selinger 2001-2013
</metadata>
<g transform="translate(0.000000,1024.000000) scale(0.100000,-0.100000)"
fill="#000000" stroke="none">
<path d="M4979 10236 c-2 -2 -33 -7 -69 -10 -102 -11 -206 -34 -315 -72 -55
-18 -104 -35 -110 -36 -18 -5 -293 -146 -307 -157 -7 -6 -49 -36 -93 -67 -44
-31 -107 -80 -140 -108 -33 -29 -73 -63 -89 -77 -45 -38 -88 -82 -121 -124
-16 -21 -39 -50 -51 -64 -41 -51 -88 -128 -143 -231 -60 -113 -66 -126 -115
-267 -17 -51 -35 -95 -38 -98 -3 -4 -32 -2 -64 4 -190 34 -385 30 -589 -11
-27 -5 -57 -11 -65 -12 -60 -8 -275 -88 -380 -140 -164 -82 -333 -206 -468
-345 -62 -64 -96 -106 -200 -246 -109 -148 -232 -460 -267 -680 -19 -114 -23
-178 -23 -310 0 -131 4 -179 22 -295 32 -198 126 -456 223 -608 18 -29 33 -55
33 -58 0 -2 5 -10 10 -17 6 -7 34 -43 62 -82 83 -112 103 -133 343 -360 119
-113 144 -141 132 -150 -8 -5 -41 -28 -72 -50 -86 -61 -130 -100 -245 -215
-112 -111 -169 -181 -242 -295 -43 -68 -151 -275 -143 -275 2 0 -7 -26 -19
-59 -28 -71 -72 -238 -81 -306 -4 -27 -9 -61 -12 -75 -12 -56 -11 -388 2 -475
49 -344 188 -655 406 -910 37 -44 711 -723 1497 -1509 l1430 -1429 0 953 0
952 -964 964 c-996 996 -994 994 -1024 1104 -72 257 121 513 390 519 94 2 169
-17 236 -62 27 -18 347 -330 711 -694 365 -365 664 -663 666 -663 1 0 2 431 2
958 l0 958 -270 268 c-148 147 -584 579 -968 959 -487 482 -707 707 -727 742
-131 228 -13 529 235 600 113 33 202 24 315 -31 72 -35 104 -65 745 -705 l671
-669 -1 1167 c0 643 3 1188 7 1212 12 65 49 139 98 194 184 207 508 176 647
-61 61 -104 57 52 59 -2057 1 -1062 2 -1934 3 -1940 1 -5 306 294 678 666 722
721 711 711 833 738 131 29 284 -21 379 -124 122 -132 145 -338 56 -490 -26
-44 -66 -86 -623 -653 -213 -216 -452 -460 -532 -541 -80 -82 -287 -293 -460
-470 l-315 -321 0 -960 0 -961 1475 1477 c811 811 1496 1503 1521 1537 74 99
123 176 171 267 61 115 136 318 152 410 3 14 10 50 16 80 20 99 25 172 25 345
-1 170 -5 222 -30 345 -109 533 -440 971 -920 1218 -138 71 -326 135 -460 157
-11 2 -54 9 -95 16 -87 14 -287 17 -412 7 l-86 -8 0 548 c0 503 -4 677 -19
757 -3 17 -6 39 -8 50 -8 79 -42 203 -89 326 -222 592 -776 1031 -1421 1125
-46 6 -360 15 -366 10z"/>
</g>
</svg>
